<svg height="512" viewBox="0 0 58 38" width="512" xmlns="http://www.w3.org/2000/svg"><g id="Page-1" fill="none" fill-rule="evenodd"><g id="039---U-Bend-Pipe" fill-rule="nonzero"><path id="Shape" d="m56 27v5h-16v-5c0-6.0751322-4.9248678-11-11-11s-11 4.9248678-11 11v5h-16v-5c0-14.9116882 12.0883118-27 27-27s27 12.0883118 27 27z" fill="#3b97d3"/><path id="Shape" d="m17.6 8.032c-.4532835.00076803-.8503925-.30345139-.967654-.74130558-.1172614-.43785419.074656-.89982036.467654-1.12569442.7917993-.45406616 1.6087855-.8627262 2.447-1.224.5072735-.21842859 1.0955714.01572648 1.314.52300001s-.0157265 1.09557136-.523 1.31399999c-.769074.33097554-1.5186267.70558495-2.245 1.122-.1499005.086505-.3199298.13203009-.493.132z" fill="#fff"/><path id="Shape" d="m6.022 27h-.043c-.26512119-.0111662-.51493384-.1272487-.69442835-.3226858-.1794945-.195437-.27395165-.4542021-.26257165-.7193142.30356529-6.6009911 3.30422938-12.787782 8.3-17.113.2695582-.23797255.6461261-.31290335.9862496-.19624742.3401234.11665594.5914308.40693614.6581862.76025793s-.06132.71528129-.3354358.94798949c-4.580487 3.963783-7.33183671 9.6349619-7.61 15.686-.02302787.5350365-.46346819.9569598-.999.957z" fill="#fff"/><g fill="#bdc3c7"><rect id="Rectangle-path" height="8" rx="1" width="20" y="30"/><rect id="Rectangle-path" height="8" rx="1" width="20" x="38" y="30"/></g></g></g></svg>