<svg height="512" viewBox="0 0 128 128" width="512" xmlns="http://www.w3.org/2000/svg"><g><path d="m58 59.375h12v44.433h-12z" fill="#eaeaf0"/><path d="m53.5 58h21v12h-21z" fill="#d8d8d8"/><circle cx="64" cy="35.25" fill="#3ba9fd" r="28.75"/><circle cx="64" cy="35.25" fill="#eaeaf0" r="22.75"/><path d="m66.6 36.75a3 3 0 1 1 -5.2-3c.828-1.435 8.127-8.076 8.127-8.076s-2.1 9.641-2.927 11.076z" fill="#3ba9fd"/><g fill="#0e8bce"><path d="m64 17.25a1.751 1.751 0 0 1 -1.75-1.75v-3a1.75 1.75 0 0 1 3.5 0v3a1.751 1.751 0 0 1 -1.75 1.75z"/><path d="m54.126 19.9a1.75 1.75 0 0 1 -1.517-.875l-1.5-2.6a1.75 1.75 0 1 1 3.032-1.75l1.5 2.6a1.75 1.75 0 0 1 -1.515 2.625z"/><path d="m46.9 27.125a1.743 1.743 0 0 1 -.874-.234l-2.6-1.5a1.75 1.75 0 1 1 1.75-3.032l2.6 1.5a1.75 1.75 0 0 1 -.876 3.266z"/><path d="m44.25 37h-3a1.75 1.75 0 0 1 0-3.5h3a1.75 1.75 0 0 1 0 3.5z"/><path d="m44.3 48.375a1.75 1.75 0 0 1 -.876-3.266l2.6-1.5a1.75 1.75 0 0 1 1.75 3.032l-2.6 1.5a1.745 1.745 0 0 1 -.874.234z"/><path d="m73.874 19.9a1.75 1.75 0 0 1 -1.515-2.625l1.5-2.6a1.75 1.75 0 0 1 3.032 1.75l-1.5 2.6a1.75 1.75 0 0 1 -1.517.875z"/><path d="m81.105 27.125a1.75 1.75 0 0 1 -.876-3.266l2.6-1.5a1.75 1.75 0 0 1 1.75 3.032l-2.6 1.5a1.743 1.743 0 0 1 -.874.234z"/><path d="m86.75 37h-3a1.75 1.75 0 0 1 0-3.5h3a1.75 1.75 0 0 1 0 3.5z"/><path d="m83.7 48.375a1.745 1.745 0 0 1 -.874-.234l-2.6-1.5a1.75 1.75 0 1 1 1.75-3.032l2.6 1.5a1.75 1.75 0 0 1 -.876 3.266z"/></g><path d="m70 48.815h-12a1.75 1.75 0 0 1 0-3.5h12a1.75 1.75 0 0 1 0 3.5z" fill="#3ba9fd"/><path d="m6.5 91.5h115v24h-115z" fill="#eaeaf0"/><path d="m115.5 87h6v33h-6z" fill="#d8d8d8" transform="matrix(-1 0 0 -1 237 207)"/><path d="m6.5 87h6v33h-6z" fill="#d8d8d8"/><rect fill="#3ba9fd" height="36" rx="6" width="39.808" x="44.096" y="85.5"/><path d="m77.9 113.082a1.75 1.75 0 0 1 -1.75-1.75v-6.5a1.75 1.75 0 0 1 3.5 0v6.5a1.751 1.751 0 0 1 -1.75 1.75z" fill="#0e8bce"/></g></svg>