<svg id="Capa_1" enable-background="new 0 0 512 512" height="512" viewBox="0 0 512 512" width="512" xmlns="http://www.w3.org/2000/svg"><g><g><path d="m256 0c-118.334 0-217.898 80.296-247.223 189.37l-4.315 114.366c22.365 118.569 126.469 208.264 251.538 208.264 141.385 0 256-114.615 256-256s-114.615-256-256-256z" fill="#3c3"/></g><g><g><path d="m236 99.294h40v150h-40z" fill="#c4f3ff"/></g><g><path d="m296 139.294h-80c-22.091 0-40-17.909-40-40v-20h160v20c0 22.092-17.909 40-40 40z" fill="#194189"/></g><g><path d="m286 79.294h-60v-25c0-16.569 13.431-30 30-30 16.569 0 30 13.431 30 30z" fill="#194189"/></g><g><path d="m361 99.294h-210c-11.046 0-20-8.954-20-20 0-11.046 8.954-20 20-20h210c11.046 0 20 8.954 20 20 0 11.046-8.954 20-20 20z" fill="#25569e"/></g><g><path d="m201 79.294c0-11.046 8.954-20 20-20h-70c-11.046 0-20 8.954-20 20s8.954 20 20 20h70c-11.046 0-20-8.954-20-20z" fill="#194189"/></g><g><g><path d="m449.68 303.79v168.92h-114.49v-110.18c-17.47 22.32-44.65 36.67-75.19 36.67-52.69 0-95.41-42.72-95.41-95.41h-160.13c-1.89-9.98-3.2-20.18-3.88-30.54-.39-5.7-.58-11.46-.58-17.25 0-23.08 3.05-45.44 8.78-66.71h326.41c63.23 0 114.49 51.26 114.49 114.5z" fill="#ebfbff"/></g></g><g><g><path d="m365.72 311.42v161.29h-30.53v-110.18c-17.47 22.32-44.65 36.67-75.19 36.67-52.69 0-95.41-42.72-95.41-95.41h-160.13c-1.89-9.98-3.2-20.18-3.88-30.54h326.97c21.08 0 38.17 17.09 38.17 38.17z" fill="#c4f3ff"/></g></g><g><path d="m454.678 457.706h-124.492c-8.284 0-15 6.716-15 15 0 8.284 6.716 15 15 15h124.492c8.284 0 15-6.716 15-15 0-8.285-6.716-15-15-15z" fill="#c4f3ff"/></g><g><path d="m70.613 308.786v-124.492c0-8.284-6.716-15-15-15-8.284 0-15 6.716-15 15v124.492c0 8.284 6.716 15 15 15 8.284 0 15-6.716 15-15z" fill="#c4f3ff"/></g><g><path d="m55.613 253.786c-8.284 0-15-6.716-15-15v70c0 8.284 6.716 15 15 15 8.284 0 15-6.716 15-15v-70c0 8.284-6.716 15-15 15z" fill="#62e0ff"/></g><g><path d="m130.613 308.786v-124.492c0-8.284-6.716-15-15-15-8.284 0-15 6.716-15 15v124.492c0 8.284 6.716 15 15 15 8.284 0 15-6.716 15-15z" fill="#c4f3ff"/></g><g><path d="m115.613 253.786c-8.284 0-15-6.716-15-15v70c0 8.284 6.716 15 15 15 8.284 0 15-6.716 15-15v-70c0 8.284-6.716 15-15 15z" fill="#62e0ff"/></g><g><path d="m385.186 472.706c0-8.284 6.716-15 15-15h-70c-8.284 0-15 6.716-15 15 0 8.284 6.716 15 15 15h70c-8.284 0-15-6.716-15-15z" fill="#62e0ff"/></g></g></g></svg>