<svg id="Capa_1" enable-background="new 0 0 512 512" height="512" viewBox="0 0 512 512" width="512" xmlns="http://www.w3.org/2000/svg"><circle cx="256" cy="256" fill="#f92814" r="256"/><path d="m512 256c0-8.143-.397-16.192-1.141-24.141l-134.359-134.359-45.077 24.923-48.09-48.089-147.833 64.166 105.643 105.643-13.975 56.245-70.636-70.637-79.532 140.382 138.7 138.7c13.13 2.076 26.587 3.167 40.3 3.167 141.385 0 256-114.615 256-256z" fill="#db0404"/><path d="m209 130h94v54h-94z" fill="#fff"/><path d="m255.595 130h47.405v54h-47.405z" fill="#e9edf5"/><path d="m194.01 164.169h123.981v123.981h-123.981z" fill="#dce1eb"/><path d="m255.595 164.169h62.395v123.981h-62.395z" fill="#bec3d2"/><path d="m228.667 74.333h54.667v40h-54.667z" fill="#dce1eb"/><path d="m255.595 74.333h27.738v40h-27.738z" fill="#bec3d2"/><path d="m77 250h358v120.133h-358z" fill="#fff"/><path d="m255.595 250h179.405v120.133h-179.405z" fill="#e9edf5"/><path d="m101.034 229.751h55.497v160.632h-55.497z" fill="#dce1eb"/><path d="m348.522 229.751h55.497v160.632h-55.497z" fill="#bec3d2"/><path d="m135.5 97.5h241v41h-241z" fill="#414952"/><path d="m255.595 97.5h120.905v41h-120.905z" fill="#23272b"/></svg>