<?xml version="1.0" encoding="iso-8859-1"?>
<!-- Generator: Adobe Illustrator 19.0.0, SVG Export Plug-In . SVG Version: 6.00 Build 0)  -->
<svg xmlns="http://www.w3.org/2000/svg" xmlns:xlink="http://www.w3.org/1999/xlink" version="1.1" id="Layer_1" x="0px" y="0px" viewBox="0 0 512 512" style="enable-background:new 0 0 512 512;" xml:space="preserve" width="512" height="512">
<g>
	<circle style="fill:#575F64;" cx="256" cy="256" r="256"/>
	<path style="fill:#32393F;" d="M317.574,194.418l-44.826-44.826L104.005,318.334l27.021,27.021l-8.604,8.604l32.479,32.478   l-19.231,19.231l-14.667-14.667l-16.992,16.992l98.361,98.361C219.667,510.043,237.604,512,256,512c141.385,0,256-114.615,256-256   c0-18.397-1.957-36.334-5.645-53.631l-98.366-98.366L317.574,194.418z"/>
	<g>
		<g>
			<g>
				<rect x="122.406" y="336.156" style="fill:#C3EA21;" width="17.813" height="17.813"/>
			</g>
		</g>
		<g>
			<polygon style="fill:#E0F4FF;" points="408,104 408,264.906 352.365,282.719 146.453,282.719 104,264.906 104,104    "/>
			<polygon style="fill:#BBDCFF;" points="408,104 408,264.906 352.365,282.719 256,282.719 256,104    "/>
			<g>
				<g>
					<path style="fill:#BBDCFF;" d="M104,264.906v53.438h304v-53.438H104z"/>
				</g>
			</g>
			<rect x="256" y="264.906" style="fill:#9ABADB;" width="152" height="53.438"/>
			<g>
				<path style="fill:#575F64;" d="M256,140.219c-44.175,0-80.156,35.981-80.156,80.156c0,24.937,11.222,47.916,30.994,63.234      c14.25,11.044,31.35,16.922,49.163,16.922c6.947,0,14.071-0.89,21.019-2.672c34.913-9.618,59.138-41.503,59.138-77.484      C336.156,176.199,300.175,140.219,256,140.219z"/>
			</g>
			<path style="fill:#32393F;" d="M336.156,220.375c0,35.98-24.225,67.866-59.138,77.484c-6.947,1.782-14.071,2.672-21.019,2.672     V140.219C300.175,140.219,336.156,176.199,336.156,220.375z"/>
			<path style="fill:#9CDD05;" d="M300.531,220.375v126.29h-89.063v-126.29c0-24.581,19.95-44.531,44.531-44.531     S300.531,195.794,300.531,220.375z"/>
			<path style="fill:#66BB00;" d="M300.531,346.665H256V175.844c24.581,0,44.531,19.95,44.531,44.531V346.665z"/>
			<g>
				<rect x="247.094" y="229.281" style="fill:#C3EA21;" width="17.813" height="35.625"/>
			</g>
			<g>
				<g>
					<rect x="247.094" y="282.719" style="fill:#C3EA21;" width="17.813" height="17.813"/>
				</g>
			</g>
			<g>
				<g>
					<rect x="371.781" y="353.969" style="fill:#9CDD05;" width="17.813" height="17.813"/>
				</g>
			</g>
			<path style="fill:#C3EA21;" d="M371.781,399.094H140.219c0-23.156,17.634-42.809,40.256-44.947     c1.603-2.672,3.563-5.345,5.878-7.482c12.468-12.646,33.665-13.359,47.381-2.493c6.057-4.988,13.716-8.016,22.266-8.016     s16.209,3.028,22.266,8.016c13.716-10.866,34.913-10.153,47.381,2.493c2.316,2.137,4.276,4.81,5.878,7.659     C354.681,356.997,371.781,376.472,371.781,399.094z"/>
			<rect x="256" y="229.281" style="fill:#9CDD05;" width="8.906" height="35.625"/>
			<rect x="256" y="282.719" style="fill:#9CDD05;" width="8.906" height="17.813"/>
			<path style="fill:#9CDD05;" d="M371.781,399.094H256v-62.938c8.55,0,16.209,3.028,22.266,8.016     c13.716-10.866,34.913-10.153,47.381,2.493c2.316,2.137,4.276,4.81,5.878,7.659C354.681,356.997,371.781,376.472,371.781,399.094     z"/>
			<g>
				<g>
					<rect x="104" y="390.188" style="fill:#9CDD05;" width="304" height="17.813"/>
				</g>
			</g>
			<rect x="256" y="390.188" style="fill:#66BB00;" width="152" height="17.813"/>
		</g>
	</g>
</g>















</svg>
